<svg t="1646883837950" class="icon" viewBox="0 0 1024 1024" version="1.1" xmlns="http://www.w3.org/2000/svg" p-id="2044" width="200" height="200"><path d="M882.192537 850.752816H141.881817c-16.379257 0-29.655241 13.274027-29.655241 29.651327 0 16.379257 13.275984 29.655241 29.655241 29.655241h740.312676c16.379257 0 29.655241-13.275984 29.655241-29.655241-0.001957-16.3773-13.27794-29.651327-29.657197-29.651327zM141.801593 765.557591l0.04109-0.001957 0.04109 0.001957h129.24762c8.216044 0 15.64942-3.343943 21.022427-8.74043l458.143727-458.143728c5.879783-5.419967 9.58571-13.16054 9.58571-21.785527l-0.003913-0.060656 0.001957-0.02348c0-8.63477-3.711797-16.38317-9.601364-21.801181L624.024061 128.74867c-0.04109-0.05283-0.095877-0.09979-0.136967-0.15262a30.273547 30.273547 0 0 0-1.886226-2.085807c-0.289587-0.2935-0.606567-0.56352-0.911807-0.84528-0.4696-0.436337-0.937243-0.872673-1.434237-1.277703-0.350243-0.285673-0.72201-0.543953-1.087907-0.813974-0.453947-0.336547-0.907893-0.673093-1.37945-0.984203-0.39916-0.260237-0.81006-0.49895-1.22096-0.73962a28.539941 28.539941 0 0 0-1.434236-0.802234 31.073824 31.073824 0 0 0-4.19705-1.77274c-0.538083-0.180013-1.09182-0.332633-1.645557-0.485253-0.453947-0.12327-0.905937-0.250453-1.369667-0.3522a28.547767 28.547767 0 0 0-1.894053-0.32872c-0.4109-0.062613-0.81593-0.142837-1.234657-0.18784a29.185641 29.185641 0 0 0-3.030877-0.174143c-0.060657 0-0.121313-0.009783-0.18197-0.009784H600.953004a29.561321 29.561321 0 0 0-20.971554 8.687601L120.920046 585.485553a29.729594 29.729594 0 0 0-6.396343 9.527011 29.541754 29.541754 0 0 0-2.379307 11.642166V735.90235c0 16.379257 13.27794 29.655241 29.657197 29.655241z m459.165107-576.238347l87.400389 87.400389-49.893044 49.895001-87.400389-87.402345 49.893044-49.893045zM171.456834 618.825197l337.800898-337.796984 87.402345 87.400389-337.818508 337.816551h-87.384735v-87.419956z" fill="#525252" p-id="2045"></path></svg>